# xmcd
#
# Track frame offsets:
#	150
#	11440
#	27580
#	44252
#	58050
#	76860
#	92565
#	109667
#	123040
#	147277
#
# Disc length: 2130 seconds
#
# Revision: 1
# Processed by: cddbd v1.5.2PL0 Copyright (c) Steve Scherf et al.
# Submitted via: MusicWizard 7.2.1
#
DISCID=7608500a
DTITLE=Johnny Cash - Covered By Cash
DYEAR=2003
DGENRE=Country
TTITLE0=Without Love
TTITLE1=Johnny 99
TTITLE2=The Gambler
TTITLE3=It Ain't Me Babe
TTITLE4=Sunday Morning Coming Down
TTITLE5=The Night The Drove Old Dixie Down
TTITLE6=Ghost Riders In The Sky
TTITLE7=Help Me Make It Through The Night
TTITLE8=Highway Patrolman
TTITLE9=Cocaine Blues
EXTD=(c)2003 Sony Music Custom Marketing Group\n(p)CBS\nupc 084296304424\nKatalog: A70301
EXTT0=
EXTT1=
EXTT2=
EXTT3=
EXTT4=
EXTT5=
EXTT6=
EXTT7=
EXTT8=
EXTT9=
PLAYORDER=
